<svg width="32" height="32" viewBox="0 0 32 32" fill="none" xmlns="http://www.w3.org/2000/svg">
<rect width="32" height="32" rx="16" fill="#FE6100"/>
<path d="M18.5526 16.638L21.8858 18.8601C21.9339 18.8921 21.9897 18.9104 22.0474 18.9132C22.105 18.916 22.1623 18.903 22.2132 18.8758C22.2641 18.8485 22.3066 18.808 22.3363 18.7585C22.366 18.709 22.3817 18.6524 22.3817 18.5946V13.3641C22.3817 13.308 22.3669 13.2528 22.3388 13.2042C22.3107 13.1557 22.2702 13.1153 22.2216 13.0874C22.1729 13.0594 22.1177 13.0448 22.0615 13.045C22.0054 13.0452 21.9503 13.0602 21.9018 13.0885L18.5526 15.0426M10.8945 12.1709H17.2763C17.9812 12.1709 18.5526 12.7423 18.5526 13.4473V18.5527C18.5526 19.2576 17.9812 19.829 17.2763 19.829H10.8945C10.1896 19.829 9.61816 19.2576 9.61816 18.5527V13.4473C9.61816 12.7423 10.1896 12.1709 10.8945 12.1709Z" stroke="white" stroke-width="1.14872" stroke-linecap="round" stroke-linejoin="round"/>
</svg>
