<svg width="28" height="28" viewBox="0 0 28 28" fill="none" xmlns="http://www.w3.org/2000/svg">
<path d="M21.1038 12.4344C20.5218 13.046 19.5758 13.046 18.9945 12.4344L13.2596 6.40992L0.863846 19.4344C0.443665 18.3188 0.150963 17.1363 0 15.9062L12.2037 3.08442C12.7866 2.47201 13.7326 2.47201 14.3138 3.08353L21.1047 10.2174C21.685 10.8289 21.6851 11.8238 21.1038 12.4344Z" fill="white"/>
<path d="M27.9999 12.3226L16.0126 24.9171C15.4305 25.5286 14.4845 25.5268 13.9025 24.9162L7.11329 17.7823C6.53125 17.1708 6.53125 16.1768 7.11329 15.5662L12.205 10.2166C12.787 9.60512 13.7339 9.60424 14.3151 10.2158L17.7101 13.7827C18.2921 14.3942 18.2921 15.3891 17.7101 16.0006L15.4079 18.4185L15.3861 18.3974C14.8066 18.8036 14.014 18.7392 13.5024 18.2017C12.9204 17.5902 12.9204 16.5954 13.5024 15.9847L14.544 14.8903L13.2592 13.5413L10.2777 16.6747L14.9558 21.5898L27.1772 8.74951C27.5856 9.88092 27.8649 11.0784 27.9982 12.3217L27.9999 12.3226Z" fill="white"/>
</svg>
