<svg width="149" height="32" viewBox="0 0 149 32" fill="none" xmlns="http://www.w3.org/2000/svg">
<g clip-path="url(#clip0_1_261)">
<path d="M54.6814 10.2006C59.0508 10.2006 62.5648 13.4244 62.5648 18.4181H59.5252V18.4503H51.5785C51.5785 20.9466 52.9716 22.4959 54.6814 22.4959C55.8213 22.4959 56.8022 21.8315 57.3411 20.6305L61.4262 22.8739C60.0653 25.2759 57.5633 26.6666 54.6827 26.6666C50.3132 26.6666 46.7993 23.4106 46.7993 18.4181C46.7993 13.4256 50.3132 10.2006 54.6827 10.2006H54.6814ZM57.31 16.1425C56.7724 15.0047 55.7902 14.3725 54.6827 14.3725C53.5751 14.3725 52.5929 15.0047 52.0553 16.1425H57.3113H57.31Z" fill="#161616"/>
<path d="M63.6729 18.4179C63.6729 13.4242 67.1868 10.2004 70.6063 10.2004C72.3161 10.2004 73.7415 10.8325 74.7858 11.9381V5.33307H79.4085V26.6664H74.7858V24.9287C73.7415 26.0343 72.3161 26.6664 70.6063 26.6664C67.1868 26.6664 63.6729 23.4104 63.6729 18.4179ZM71.5562 22.4944C73.266 22.4944 74.6591 20.9464 74.6591 18.4167C74.6591 15.8869 73.266 14.3711 71.5562 14.3711C69.8464 14.3711 68.4533 15.8882 68.4533 18.4167C68.4533 20.9451 69.8464 22.4944 71.5562 22.4944Z" fill="#161616"/>
<path d="M86.0573 10.5488L88.907 19.4926L91.7243 10.5488H97.0436L91.281 26.3517H86.5006L80.738 10.5488H86.0573Z" fill="#FE6100"/>
<path d="M96.9478 18.4181C96.9478 13.4244 100.462 10.2006 103.881 10.2006C105.591 10.2006 107.016 10.8327 108.061 11.9383V10.5476H112.683V26.6666H108.061V24.9289C107.016 26.0345 105.591 26.6666 103.881 26.6666C100.462 26.6666 96.9478 23.4106 96.9478 18.4181ZM104.832 22.4946C106.542 22.4946 107.935 20.9466 107.935 18.4168C107.935 15.8871 106.542 14.3713 104.832 14.3713C103.123 14.3713 101.729 15.8884 101.729 18.4168C101.729 20.9453 103.123 22.4946 104.832 22.4946Z" fill="#FE6100"/>
<path d="M120.094 10.5486V12.4449C121.076 11.3381 122.468 10.2003 124.4 10.1693V15.4791C122.531 15.4791 121.107 15.8584 120.094 16.5215V26.3503H115.344V10.5473H120.094V10.5486Z" fill="#FE6100"/>
<path d="M125.318 18.4181C125.318 13.4244 128.832 10.2006 132.251 10.2006C133.961 10.2006 135.387 10.8327 136.431 11.9383V10.5476H141.054V26.6666H136.431V24.9289C135.387 26.0345 133.961 26.6666 132.251 26.6666C128.832 26.6666 125.318 23.4106 125.318 18.4181ZM133.201 22.4946C134.911 22.4946 136.304 20.9466 136.304 18.4168C136.304 15.8871 134.911 14.3713 133.201 14.3713C131.491 14.3713 130.098 15.8884 130.098 18.4168C130.098 20.9453 131.491 22.4946 133.201 22.4946Z" fill="#FE6100"/>
<path d="M143.301 24.2014C143.301 22.8739 144.568 21.8315 146.151 21.8315C147.734 21.8315 149 22.8739 149 24.2014C149 25.5288 147.734 26.5712 146.151 26.5712C144.568 26.5712 143.301 25.4966 143.301 24.2014Z" fill="#FE6100"/>
<path d="M31.2441 13.7969C30.3823 14.6571 28.9817 14.6571 28.1213 13.7969L19.6308 5.32285L1.27892 23.6431C0.656842 22.0739 0.2235 20.4106 0 18.6803L18.0675 0.645178C18.9304 -0.216236 20.331 -0.216236 21.1915 0.643939L31.2453 10.6785C32.1045 11.5387 32.1045 12.938 31.2441 13.7969Z" fill="#161616"/>
<path d="M41.4538 13.6398L23.7066 31.3552C22.8449 32.2153 21.4443 32.2129 20.5826 31.3539L10.5313 21.3194C9.66958 20.4592 9.66958 19.0611 10.5313 18.2022L18.0695 10.6775C18.9312 9.81733 20.333 9.81609 21.1935 10.6763L26.2198 15.6935C27.0815 16.5537 27.0815 17.9531 26.2198 18.8132L22.8114 22.2143L22.7791 22.1845C21.9211 22.7559 20.7477 22.6654 19.9903 21.9094C19.1286 21.0492 19.1286 19.6499 19.9903 18.7909L21.5325 17.2515L19.6302 15.3539L15.2161 19.7614L22.1421 26.675L40.2357 8.61383C40.8404 10.2053 41.2539 11.8897 41.4513 13.6385L41.4538 13.6398Z" fill="#161616"/>
</g>
<defs>
<clipPath id="clip0_1_261">
<rect width="149" height="32" fill="white"/>
</clipPath>
</defs>
</svg>
