<svg width="32" height="32" viewBox="0 0 32 32" fill="none" xmlns="http://www.w3.org/2000/svg">
<path d="M24.1187 14.2108C23.4535 14.9097 22.3723 14.9097 21.7081 14.2108L15.1538 7.32562L0.987253 22.2107C0.507045 20.9358 0.17253 19.5844 0 18.1785L13.9471 3.52505C14.6133 2.82515 15.6944 2.82515 16.3587 3.52404L24.1196 11.6771C24.7829 12.3759 24.7829 13.5129 24.1187 14.2108Z" fill="black"/>
<path d="M32.0021 14.0836L18.3023 28.4772C17.6371 29.1761 16.5559 29.1741 15.8908 28.4762L8.13171 20.3232C7.46651 19.6243 7.46651 18.4884 8.13171 17.7905L13.9508 11.6767C14.6159 10.9778 15.6981 10.9768 16.3623 11.6757L20.2423 15.7522C20.9075 16.4511 20.9075 17.5881 20.2423 18.287L17.6113 21.0503L17.5863 21.0261C16.924 21.4904 16.0182 21.4168 15.4335 20.8025C14.7683 20.1037 14.7683 18.9667 15.4335 18.2688L16.624 17.0181L15.1556 15.4763L11.7481 19.0573L17.0946 24.6746L31.0618 10C31.5286 11.293 31.8478 12.6616 32.0002 14.0826L32.0021 14.0836Z" fill="black"/>
</svg>
