<svg width="146" height="32" viewBox="0 0 146 32" fill="none" xmlns="http://www.w3.org/2000/svg">
<g clip-path="url(#clip0_1_299)">
<path d="M53.2821 9.95755C57.5398 9.95755 60.9639 13.1046 60.9639 17.9793H58.002V18.0108H50.2585C50.2585 20.4476 51.6161 21.96 53.2821 21.96C54.3928 21.96 55.3487 21.3114 55.8738 20.139L59.8544 22.329C58.5283 24.6738 56.0904 26.0313 53.2833 26.0313C49.0256 26.0313 45.6016 22.8529 45.6016 17.9793C45.6016 13.1058 49.0256 9.95755 53.2833 9.95755H53.2821ZM55.8435 15.7579C55.3196 14.6472 54.3626 14.0301 53.2833 14.0301C52.2041 14.0301 51.2471 14.6472 50.7232 15.7579H55.8447H55.8435Z" fill="#EAEDEF"/>
<path d="M62.0439 17.9792C62.0439 13.1045 65.468 9.95747 68.8001 9.95747C70.4662 9.95747 71.8552 10.5745 72.8727 11.6538V5.20612H77.3773V26.0313H72.8727V24.3349C71.8552 25.4142 70.4662 26.0313 68.8001 26.0313C65.468 26.0313 62.0439 22.8528 62.0439 17.9792ZM69.7257 21.9587C71.3918 21.9587 72.7493 20.4475 72.7493 17.978C72.7493 15.5086 71.3918 14.0289 69.7257 14.0289C68.0597 14.0289 66.7021 15.5098 66.7021 17.978C66.7021 20.4463 68.0597 21.9587 69.7257 21.9587Z" fill="#EAEDEF"/>
<path d="M83.8552 10.2972L86.6319 19.028L89.3772 10.2972H94.5605L88.9453 25.7237H84.2871L78.6719 10.2972H83.8552Z" fill="#FE6100"/>
<path d="M94.468 17.9793C94.468 13.1046 97.8921 9.95755 101.224 9.95755C102.89 9.95755 104.279 10.5746 105.297 11.6539V10.2963H109.801V26.0313H105.297V24.335C104.279 25.4143 102.89 26.0313 101.224 26.0313C97.8921 26.0313 94.468 22.8529 94.468 17.9793ZM102.151 21.9587C103.817 21.9587 105.175 20.4476 105.175 17.9781C105.175 15.5087 103.817 14.0289 102.151 14.0289C100.485 14.0289 99.1274 15.5099 99.1274 17.9781C99.1274 20.4463 100.485 21.9587 102.151 21.9587Z" fill="#FE6100"/>
<path d="M117.022 10.2974V12.1486C117.979 11.0681 119.335 9.95743 121.218 9.92719V15.1105C119.397 15.1105 118.009 15.4807 117.022 16.128V25.7227H112.394V10.2962H117.022V10.2974Z" fill="#FE6100"/>
<path d="M122.113 17.9793C122.113 13.1046 125.537 9.95755 128.869 9.95755C130.536 9.95755 131.925 10.5746 132.942 11.6539V10.2963H137.447V26.0313H132.942V24.335C131.925 25.4143 130.536 26.0313 128.869 26.0313C125.537 26.0313 122.113 22.8529 122.113 17.9793ZM129.795 21.9587C131.461 21.9587 132.819 20.4476 132.819 17.9781C132.819 15.5087 131.461 14.0289 129.795 14.0289C128.129 14.0289 126.771 15.5099 126.771 17.9781C126.771 20.4463 128.129 21.9587 129.795 21.9587Z" fill="#FE6100"/>
<path d="M139.635 23.6248C139.635 22.3289 140.87 21.3114 142.412 21.3114C143.955 21.3114 145.189 22.3289 145.189 23.6248C145.189 24.9206 143.955 25.9381 142.412 25.9381C140.87 25.9381 139.635 24.8891 139.635 23.6248Z" fill="#FE6100"/>
<path d="M30.4433 13.4691C29.6036 14.3088 28.2388 14.3088 27.4003 13.4691L19.1269 5.19685L1.24426 23.0807C0.638094 21.5489 0.215832 19.9252 -0.00195312 18.2362L17.6036 0.630608C18.4445 -0.210286 19.8093 -0.210286 20.6477 0.629399L30.4445 10.4249C31.2817 11.2646 31.2817 12.6306 30.4433 13.4691Z" fill="#EAEDEF"/>
<path d="M40.3922 13.3155L23.0988 30.6089C22.2592 31.4486 20.8944 31.4461 20.0547 30.6077L10.2604 20.8122C9.42069 19.9725 9.42069 18.6077 10.2604 17.7692L17.6058 10.4238C18.4455 9.5841 19.8115 9.58289 20.65 10.4226L25.5477 15.3203C26.3874 16.16 26.3874 17.526 25.5477 18.3657L22.2265 21.6857L22.195 21.6567C21.359 22.2145 20.2156 22.1261 19.4775 21.3881C18.6379 20.5484 18.6379 19.1824 19.4775 18.3439L20.9803 16.8412L19.1267 14.9888L14.8254 19.2913L21.5743 26.0402L39.2053 8.40927C39.7945 9.96281 40.1974 11.6071 40.3898 13.3143L40.3922 13.3155Z" fill="#EAEDEF"/>
</g>
<defs>
<clipPath id="clip0_1_299">
<rect width="145.19" height="31.2377" fill="white"/>
</clipPath>
</defs>
</svg>
