<svg width="35" height="64" viewBox="0 0 35 64" fill="none" xmlns="http://www.w3.org/2000/svg">
<path d="M2.08755 60.1116C1.5253 59.7954 0.183786 59.3587 0.150724 58.6135C0.106142 57.6073 1.16551 57.816 1.84601 57.9448C3.18415 58.1982 4.9607 59.4291 6.26514 59.2539C0.873903 50.2607 -1.15803 39.9748 0.638259 29.6306C2.42495 19.3419 7.7481 8.49861 17.1556 3.15253C21.76 0.535899 27.0517 -0.811136 32.3192 0.520725C32.7712 0.635 35.0317 1.09649 34.4901 1.87669C34.2078 2.28343 31.3112 1.66264 30.7769 1.63236C27.9994 1.47465 25.3527 1.80838 22.7238 2.69656C13.7662 5.72301 7.53822 14.1961 4.61541 22.811C2.67924 28.5179 1.98251 34.7857 2.52566 40.814C2.80597 43.9255 3.39088 47.0764 4.42429 50.0355C5.29591 52.5313 6.63308 56.6701 8.70965 58.4469C9.55247 56.2258 8.25047 53.1024 8.76336 50.7607C9.035 49.5202 10.2359 48.5996 11.0243 50.0111C11.6636 51.1553 11.198 53.4255 11.1728 54.6941C11.1446 56.1097 11.0706 57.5162 10.91 58.9226C10.7922 59.9543 10.9697 62.2169 10.1135 62.9035C8.59945 64.1176 3.55511 60.8755 2.08755 60.1116C2.69985 60.4303 1.49973 59.7811 2.08755 60.1116Z" fill="#222221"/>
</svg>
