<svg width="31" height="31" viewBox="0 0 31 31" fill="none" xmlns="http://www.w3.org/2000/svg">
<g filter="url(#filter0_d_1_278)">
<circle cx="14.3" cy="14.6666" r="12.8333" fill="#FF9E44"/>
<circle cx="14.3" cy="14.6667" r="12.1" fill="#FFC553"/>
<path d="M13.6124 16.1158C13.7038 15.8025 14.129 15.7556 14.2862 16.0416L18.8204 24.3014C18.9163 24.476 18.8567 24.6954 18.6778 24.7828C17.363 25.4241 14.5139 26.2339 11.2853 25.443C11.0873 25.3945 10.9726 25.1895 11.0294 24.9938L13.6124 16.1158ZM12.6153 15.3014C12.9134 15.1978 13.1944 15.4937 13.0753 15.7858L9.62316 24.2164C9.53731 24.4256 9.28451 24.5085 9.09484 24.3854C6.94342 22.9883 4.82812 20.9578 3.90832 18.7262C3.83095 18.5385 3.9324 18.3282 4.12414 18.2614L12.6153 15.3014ZM15.0616 15.902C14.8957 15.6116 15.1729 15.2688 15.4913 15.3707L23.9786 18.0934C24.1642 18.1529 24.2707 18.3464 24.2023 18.5289C23.7243 19.8037 22.1688 22.3334 20.047 23.8483C19.8757 23.9705 19.6387 23.9118 19.5343 23.7291L15.0616 15.902ZM23.3907 9.5133C23.5049 9.44288 23.6498 9.43771 23.754 9.52209C24.921 10.4702 25.9073 14.0393 24.9698 16.8014C24.9113 16.9739 24.728 17.0677 24.5509 17.025L15.8155 14.9225C15.4988 14.846 15.4318 14.4247 15.7091 14.2535L23.3907 9.5133ZM6.44445 7.62366C6.589 7.48685 6.81759 7.49957 6.95226 7.64612L12.5528 13.7408C12.7342 13.9386 12.6486 14.2579 12.3927 14.3385L3.91515 16.9987C3.73319 17.0557 3.53705 16.9638 3.48644 16.7799C2.97744 14.9298 3.37066 10.5327 6.44445 7.62366ZM16.6632 3.89514C20.1488 4.41053 22.1097 6.67101 22.7902 7.98303C22.8695 8.13619 22.8164 8.32148 22.6759 8.42151L15.38 13.609C15.115 13.7975 14.7544 13.5736 14.8058 13.2526L16.2609 4.19495C16.2919 4.00186 16.4697 3.86654 16.6632 3.89514ZM14.9376 3.68713C15.1484 3.69961 15.2987 3.89245 15.2667 4.1012L13.8683 13.1656C13.821 13.4718 13.439 13.5851 13.2325 13.3541L7.28527 6.69983C7.16496 6.56521 7.16002 6.36191 7.28234 6.22912C8.92408 4.44718 11.9613 3.51431 14.9376 3.68713Z" fill="url(#paint0_radial_1_278)"/>
<mask id="mask0_1_278" style="mask-type:alpha" maskUnits="userSpaceOnUse" x="3" y="3" width="23" height="23">
<path d="M13.6124 16.1158C13.7038 15.8025 14.129 15.7556 14.2862 16.0416L18.8204 24.3014C18.9163 24.476 18.8567 24.6954 18.6778 24.7828C17.363 25.4241 14.5139 26.2339 11.2853 25.443C11.0873 25.3945 10.9726 25.1895 11.0294 24.9938L13.6124 16.1158ZM12.6153 15.3014C12.9134 15.1978 13.1944 15.4937 13.0753 15.7858L9.62316 24.2164C9.53731 24.4256 9.28451 24.5085 9.09484 24.3854C6.94342 22.9883 4.82812 20.9578 3.90832 18.7262C3.83095 18.5385 3.9324 18.3282 4.12414 18.2614L12.6153 15.3014ZM15.0616 15.902C14.8957 15.6116 15.1729 15.2688 15.4913 15.3707L23.9786 18.0934C24.1642 18.1529 24.2707 18.3464 24.2023 18.5289C23.7243 19.8037 22.1688 22.3334 20.047 23.8483C19.8757 23.9705 19.6387 23.9118 19.5343 23.7291L15.0616 15.902ZM23.3907 9.5133C23.5049 9.44288 23.6498 9.43771 23.754 9.52209C24.921 10.4702 25.9073 14.0393 24.9698 16.8014C24.9113 16.9739 24.728 17.0677 24.5509 17.025L15.8155 14.9225C15.4988 14.846 15.4318 14.4247 15.7091 14.2535L23.3907 9.5133ZM6.44445 7.62366C6.589 7.48685 6.81759 7.49957 6.95226 7.64612L12.5528 13.7408C12.7342 13.9386 12.6486 14.2579 12.3927 14.3385L3.91515 16.9987C3.73319 17.0557 3.53705 16.9638 3.48644 16.7799C2.97744 14.9298 3.37066 10.5327 6.44445 7.62366ZM16.6632 3.89514C20.1488 4.41053 22.1097 6.67101 22.7902 7.98303C22.8695 8.13619 22.8164 8.32148 22.6759 8.42151L15.38 13.609C15.115 13.7975 14.7544 13.5736 14.8058 13.2526L16.2609 4.19495C16.2919 4.00186 16.4697 3.86654 16.6632 3.89514ZM14.9376 3.68713C15.1484 3.69961 15.2987 3.89245 15.2667 4.1012L13.8683 13.1656C13.821 13.4718 13.439 13.5851 13.2325 13.3541L7.28527 6.69983C7.16496 6.56521 7.16002 6.36191 7.28234 6.22912C8.92408 4.44718 11.9613 3.51431 14.9376 3.68713Z" fill="#FF8A35"/>
</mask>
<g mask="url(#mask0_1_278)">
<path d="M4.94998 15.4C4.50998 14.08 5.49999 13.475 6.04998 11.3667C7.14997 7.15001 9.93076 5.56112 11.7333 5.31668C15.4 4.21668 15.7666 5.86667 19.0666 6.41667C23.0154 7.0748 23.8944 12.3444 23.4666 14.3C23.0389 15.4611 22.1833 18.1133 22.1833 19.4333C22.1833 21.0833 17.7833 24.0167 15.0333 24.3833C12.2833 24.75 7.53625 22.2192 7.3333 20.9C6.96664 18.5167 5.49998 17.05 4.94998 15.4Z" stroke="#FF6331" stroke-opacity="0.5" stroke-width="0.183333"/>
<path d="M15.7969 22.9723C14.5826 23.4301 12.1708 22.48 11.3031 22.1718C8.2769 21.8105 7.25238 18.9055 6.95902 17.2354C5.80046 13.8599 6.56633 14.2081 6.95902 11.1142C7.4289 7.41202 11.9385 5.96246 13.7768 6.2898C14.8746 6.64605 17.3768 7.29851 18.6081 7.29851C22.3607 7.29851 23.7429 11.5091 22.7556 13.8786C21.7609 16.2659 21.888 20.3218 20.6658 20.5588C18.4577 20.9871 17.3148 22.3999 15.7969 22.9723Z" stroke="#FF6331" stroke-opacity="0.5" stroke-width="0.183333"/>
<path d="M22.0293 11.7065C22.5206 12.6774 21.6222 15.9074 21.3734 16.643C21.1793 19.1612 19.1424 20.5481 17.5799 20.8998C14.4493 22.0769 14.4749 22.5531 11.698 21.5794C6.85638 19.8817 7.13425 15.6129 7.35399 14.076C7.63698 13.1477 7.69209 12.9661 7.63226 11.9512C7.44993 8.85792 12.1774 6.90201 14.4624 7.55994C16.7647 8.22282 19.972 8.30228 20.7811 8.94215C22.0293 9.92943 21.4152 10.493 22.0293 11.7065Z" stroke="#FF6331" stroke-opacity="0.5" stroke-width="0.183333"/>
<path d="M11.0699 8.68026C11.8536 8.09887 14.8448 8.40347 15.5327 8.51193C17.788 8.30186 17.9666 9.04744 19.9833 9.35C21.9999 10.2026 19.7999 13.0167 20.8999 15.0333C21.8166 17.4167 18.8833 19.9833 15.3883 21.2929C14.5248 21.1835 13.3547 20.6933 12.4666 20.9C9.76008 21.53 8.0147 17.8862 8.24996 15.7667C8.487 13.6312 7.3333 12.9199 8.81556 10.2026C9.49906 8.94957 10.0902 9.40699 11.0699 8.68026Z" stroke="#FF6331" stroke-opacity="0.5" stroke-width="0.183333"/>
<path d="M9.7166 18.7C9.14122 18.1397 9.16889 15.7898 9.1666 15.2167C8.69946 13.4119 9.55253 12.6783 9.53326 11C9.96087 9.24945 10.9999 10.6334 12.6499 9.16668C13.3833 8.06668 20.8999 9.90003 20.2836 11.3667C20.3082 12.0826 19.9989 14.8677 20.2836 15.562C21.1512 17.6782 18.4201 19.5753 16.6672 19.6628C14.901 19.7509 14.4747 20.7818 12.0721 19.9346C10.9642 19.544 10.4358 19.4004 9.7166 18.7Z" stroke="#FF6331" stroke-opacity="0.5" stroke-width="0.183333"/>
<path d="M19.2412 10.8649C19.7151 11.3671 19.25 12.65 19.5868 13.877C19.9224 15.4443 19.1629 16.0434 19.1184 17.4857C18.6873 18.9738 17.8452 17.7472 16.3745 18.947C11.55 20.9 9.31465 18.0167 9.89745 16.7793C9.9024 16.1634 10.2694 13.7824 10.0502 13.1756C9.382 11.3263 11.797 9.79617 13.3059 9.78487C14.8262 9.77347 15.2004 9.0849 17.2333 9.90002C18.1707 10.2759 18.6489 10.2371 19.2412 10.8649Z" stroke="#FF6331" stroke-opacity="0.5" stroke-width="0.183333"/>
<path d="M19.2412 10.8649C19.7151 11.3671 19.25 12.65 19.5868 13.877C19.9224 15.4443 19.1629 16.0434 19.1184 17.4857C18.6873 18.9738 17.8452 17.7472 16.3745 18.947C11.55 20.9 9.31465 18.0167 9.89745 16.7793C9.9024 16.1634 10.2694 13.7824 10.0502 13.1756C9.382 11.3263 11.797 9.79617 13.3059 9.78487C14.8262 9.77347 15.2004 9.0849 17.2333 9.90002C18.1707 10.2759 18.6489 10.2371 19.2412 10.8649Z" stroke="#FF6331" stroke-opacity="0.5" stroke-width="0.183333"/>
<path d="M11.0194 17.1325C10.6586 16.7339 11.041 15.7427 10.7983 14.7822C10.5621 13.5568 11.1628 13.1025 11.2205 11.9805C11.5797 10.8289 12.2157 11.7971 13.3797 10.8866C17.1664 9.44297 18.8606 11.7231 18.3873 12.6771C18.3736 13.1564 18.05 15.0041 18.211 15.4799C18.7017 16.9302 16.7974 18.0829 15.6226 18.0677C14.4389 18.0523 14.1367 18.5824 12.5671 17.9155C11.8434 17.608 11.4705 17.6306 11.0194 17.1325Z" stroke="#FF6331" stroke-opacity="0.5" stroke-width="0.183333"/>
</g>
</g>
<defs>
<filter id="filter0_d_1_278" x="8.10623e-06" y="-2.03848e-05" width="30.0666" height="30.0667" filterUnits="userSpaceOnUse" color-interpolation-filters="sRGB">
<feFlood flood-opacity="0" result="BackgroundImageFix"/>
<feColorMatrix in="SourceAlpha" type="matrix" values="0 0 0 0 0 0 0 0 0 0 0 0 0 0 0 0 0 0 127 0" result="hardAlpha"/>
<feOffset dx="0.733333" dy="0.366667"/>
<feGaussianBlur stdDeviation="1.1"/>
<feColorMatrix type="matrix" values="0 0 0 0 0 0 0 0 0 0 0 0 0 0 0 0 0 0 0.25 0"/>
<feBlend mode="normal" in2="BackgroundImageFix" result="effect1_dropShadow_1_278"/>
<feBlend mode="normal" in="SourceGraphic" in2="effect1_dropShadow_1_278" result="shape"/>
</filter>
<radialGradient id="paint0_radial_1_278" cx="0" cy="0" r="1" gradientUnits="userSpaceOnUse" gradientTransform="translate(14.3216 14.7186) rotate(90) scale(11.0519 11.0215)">
<stop stop-color="#FF531D"/>
<stop offset="1" stop-color="#FF8A35"/>
</radialGradient>
</defs>
</svg>
