<svg width="19" height="18" viewBox="0 0 19 18" fill="none" xmlns="http://www.w3.org/2000/svg">
<path d="M7.75 5.88051C8.01522 5.88051 8.26957 5.77515 8.45711 5.58761C8.64464 5.40008 8.75 5.14572 8.75 4.88051V1.94151C8.70581 1.71504 8.7413 1.48026 8.85045 1.27696C8.9596 1.07367 9.13569 0.914381 9.34887 0.826095C9.56205 0.737809 9.7992 0.725961 10.0201 0.79256C10.241 0.859159 10.4321 1.00011 10.561 1.19151L17.397 8.02751C17.5091 8.13959 17.598 8.27265 17.6587 8.41909C17.7193 8.56554 17.7505 8.7225 17.7505 8.88101C17.7505 9.03952 17.7193 9.19648 17.6587 9.34292C17.598 9.48936 17.5091 9.62243 17.397 9.73451L10.561 16.5695C10.4321 16.7609 10.241 16.9019 10.0201 16.9685C9.7992 17.0351 9.56205 17.0232 9.34887 16.9349C9.13569 16.8466 8.9596 16.6873 8.85045 16.484C8.7413 16.2808 8.70581 16.046 8.75 15.8195V12.8805C8.75 12.6153 8.64464 12.3609 8.45711 12.1734C8.26957 11.9859 8.01522 11.8805 7.75 11.8805H1.75C1.48478 11.8805 1.23043 11.7751 1.04289 11.5876C0.855357 11.4001 0.75 11.1457 0.75 10.8805V6.88051C0.75 6.61529 0.855357 6.36094 1.04289 6.1734C1.23043 5.98586 1.48478 5.88051 1.75 5.88051H7.75Z" stroke="#FE6100" stroke-width="1.5" stroke-linecap="round" stroke-linejoin="round"/>
</svg>
