<svg width="32" height="32" viewBox="0 0 32 32" fill="none" xmlns="http://www.w3.org/2000/svg">
<rect width="32" height="32" rx="16" fill="#FE6100"/>
<path d="M19.829 21.7436C19.829 20.3896 19.2911 19.091 18.3337 18.1336C17.3762 17.1761 16.0776 16.6382 14.7236 16.6382M14.7236 16.6382C13.3695 16.6382 12.071 17.1761 11.1135 18.1336C10.1561 19.091 9.61816 20.3896 9.61816 21.7436M14.7236 16.6382C16.4859 16.6382 17.9145 15.2096 17.9145 13.4474C17.9145 11.6851 16.4859 10.2565 14.7236 10.2565C12.9613 10.2565 11.5327 11.6851 11.5327 13.4474C11.5327 15.2096 12.9613 16.6382 14.7236 16.6382ZM22.3817 21.1056C22.3817 18.9549 21.1053 16.9574 19.829 16.0002C20.2485 15.6854 20.584 15.2721 20.8058 14.7968C21.0275 14.3214 21.1286 13.7988 21.1002 13.275C21.0718 12.7513 20.9148 12.2427 20.643 11.7941C20.3711 11.3455 19.9929 10.9709 19.5418 10.7033" stroke="white" stroke-width="1.14872" stroke-linecap="round" stroke-linejoin="round"/>
</svg>
