<svg width="32" height="32" viewBox="0 0 32 32" fill="none" xmlns="http://www.w3.org/2000/svg">
<rect width="32" height="32" rx="16" fill="#FE6100"/>
<path d="M12.1709 22.3818V10.8946C12.1709 10.5561 12.3053 10.2314 12.5447 9.99206C12.7841 9.7527 13.1087 9.61823 13.4472 9.61823H18.5526C18.8911 9.61823 19.2158 9.7527 19.4552 9.99206C19.6945 10.2314 19.829 10.5561 19.829 10.8946V22.3818M12.1709 22.3818H19.829M12.1709 22.3818H10.8945C10.556 22.3818 10.2314 22.2473 9.992 22.0079C9.75264 21.7686 9.61816 21.4439 9.61816 21.1054V17.2763C9.61816 16.9378 9.75264 16.6132 9.992 16.3738C10.2314 16.1345 10.556 16 10.8945 16H12.1709M19.829 22.3818H21.1053C21.4439 22.3818 21.7685 22.2473 22.0079 22.0079C22.2472 21.7686 22.3817 21.4439 22.3817 21.1054V15.3618C22.3817 15.0233 22.2472 14.6987 22.0079 14.4593C21.7685 14.2199 21.4439 14.0855 21.1053 14.0855H19.829M14.7236 12.1709H17.2763M14.7236 14.7236H17.2763M14.7236 17.2763H17.2763M14.7236 19.8291H17.2763" stroke="white" stroke-width="0.957265" stroke-linecap="round" stroke-linejoin="round"/>
</svg>
