<svg width="144" height="40" viewBox="0 0 144 40" fill="none" xmlns="http://www.w3.org/2000/svg">
<path d="M30.1483 17.7635C29.3168 18.6371 27.9654 18.6371 27.1351 17.7635L18.9423 9.15703L1.23407 27.7634C0.633807 26.1698 0.215662 24.4804 0 22.7232L17.4339 4.40631C18.2666 3.53144 19.618 3.53144 20.4483 4.40505L30.1495 14.5963C30.9786 15.4699 30.9786 16.8911 30.1483 17.7635Z" fill="white"/>
<path d="M40.0002 17.604L22.8755 35.596C22.044 36.4696 20.6925 36.4671 19.861 35.5948L10.1622 25.4035C9.3307 24.5299 9.3307 23.11 10.1622 22.2376L17.436 14.5954C18.2675 13.7218 19.6202 13.7206 20.4505 14.5942L25.3005 19.6898C26.132 20.5634 26.132 21.9846 25.3005 22.8582L22.0116 26.3124L21.9805 26.2821C21.1526 26.8625 20.0203 26.7706 19.2895 26.0027C18.458 25.1291 18.458 23.7079 19.2895 22.8355L20.7776 21.2721L18.942 19.3449L14.6827 23.8212L21.3658 30.8428L38.8249 12.4995C39.4084 14.1158 39.8073 15.8265 39.9978 17.6027L40.0002 17.604Z" fill="white"/>
<path d="M54.8894 14.5632C58.9857 14.5632 62.28 17.5855 62.28 22.2671H59.4304V22.2973H51.9804C51.9804 24.6375 53.2865 26.09 54.8894 26.09C55.958 26.09 56.8776 25.4672 57.3828 24.3412L61.2125 26.4444C59.9367 28.6963 57.5912 30 54.8906 30C50.7943 30 47.5 26.9475 47.5 22.2671C47.5 17.5867 50.7943 14.5632 54.8906 14.5632H54.8894ZM57.3537 20.1337C56.8497 19.067 55.9289 18.4744 54.8906 18.4744C53.8522 18.4744 52.9315 19.067 52.4274 20.1337H57.3549H57.3537Z" fill="white"/>
<path d="M63.3188 22.2672C63.3188 17.5856 66.6131 14.5633 69.8189 14.5633C71.4218 14.5633 72.7582 15.1559 73.7371 16.1924V10.0002H78.0709V30.0001H73.7371V28.371C72.7582 29.4075 71.4218 30.0001 69.8189 30.0001C66.6131 30.0001 63.3188 26.9476 63.3188 22.2672ZM70.7094 26.0889C72.3123 26.0889 73.6184 24.6376 73.6184 22.266C73.6184 19.8944 72.3123 18.4733 70.7094 18.4733C69.1065 18.4733 67.8005 19.8956 67.8005 22.266C67.8005 24.6364 69.1065 26.0889 70.7094 26.0889Z" fill="white"/>
<path d="M84.3042 14.8896L86.9757 23.2744L89.6169 14.8896H94.6037L89.2014 29.7048H84.7198L79.3174 14.8896H84.3042Z" fill="white"/>
<path d="M94.5137 22.2671C94.5137 17.5855 97.8079 14.5632 101.014 14.5632C102.617 14.5632 103.953 15.1558 104.932 16.1923V14.8886H109.266V30H104.932V28.3709C103.953 29.4074 102.617 30 101.014 30C97.8079 30 94.5137 26.9475 94.5137 22.2671ZM101.905 26.0888C103.508 26.0888 104.814 24.6375 104.814 22.2659C104.814 19.8944 103.508 18.4733 101.905 18.4733C100.303 18.4733 98.9964 19.8955 98.9964 22.2659C98.9964 24.6364 100.303 26.0888 101.905 26.0888Z" fill="white"/>
<path d="M116.213 14.8895V16.6673C117.134 15.6297 118.439 14.563 120.25 14.5339V19.5118C118.498 19.5118 117.163 19.8674 116.213 20.489V29.7035H111.761V14.8883H116.213V14.8895Z" fill="white"/>
<path d="M121.11 22.2671C121.11 17.5855 124.405 14.5632 127.61 14.5632C129.213 14.5632 130.55 15.1558 131.529 16.1923V14.8886H135.862V30H131.529V28.3709C130.55 29.4074 129.213 30 127.61 30C124.405 30 121.11 26.9475 121.11 22.2671ZM128.501 26.0888C130.104 26.0888 131.41 24.6375 131.41 22.2659C131.41 19.8944 130.104 18.4733 128.501 18.4733C126.898 18.4733 125.592 19.8955 125.592 22.2659C125.592 24.6364 126.898 26.0888 128.501 26.0888Z" fill="white"/>
<path d="M137.97 27.689C137.97 26.4445 139.157 25.4673 140.641 25.4673C142.125 25.4673 143.313 26.4445 143.313 27.689C143.313 28.9334 142.125 29.9107 140.641 29.9107C139.157 29.9107 137.97 28.9032 137.97 27.689Z" fill="white"/>
</svg>
