<svg width="32" height="32" viewBox="0 0 32 32" fill="none" xmlns="http://www.w3.org/2000/svg">
<rect width="32" height="32" rx="16" fill="#FE6100"/>
<path d="M15.697 9.80648C15.7249 9.74998 15.7681 9.70241 15.8217 9.66916C15.8753 9.63591 15.9371 9.61829 16.0001 9.61829C16.0631 9.61829 16.1249 9.63591 16.1785 9.66916C16.2321 9.70241 16.2753 9.74998 16.3032 9.80648L17.7774 12.7925C17.8745 12.989 18.0179 13.1591 18.1952 13.288C18.3725 13.417 18.5784 13.501 18.7953 13.5328L22.0921 14.0153C22.1546 14.0243 22.2133 14.0507 22.2616 14.0913C22.3098 14.132 22.3458 14.1854 22.3653 14.2454C22.3848 14.3054 22.3871 14.3697 22.372 14.431C22.3569 14.4923 22.325 14.5481 22.2798 14.5922L19.8955 16.9139C19.7383 17.0671 19.6207 17.2562 19.5527 17.465C19.4848 17.6738 19.4686 17.8959 19.5056 18.1124L20.0685 21.3926C20.0795 21.455 20.0728 21.5193 20.049 21.5781C20.0253 21.6369 19.9855 21.6878 19.9342 21.7251C19.8829 21.7623 19.8221 21.7844 19.7589 21.7888C19.6956 21.7932 19.6324 21.7798 19.5764 21.75L16.6293 20.2005C16.4352 20.0985 16.2191 20.0452 15.9998 20.0452C15.7805 20.0452 15.5644 20.0985 15.3702 20.2005L12.4238 21.75C12.3678 21.7796 12.3047 21.7929 12.2415 21.7884C12.1784 21.7839 12.1178 21.7618 12.0666 21.7246C12.0154 21.6873 11.9757 21.6365 11.9519 21.5778C11.9282 21.5191 11.9214 21.4549 11.9324 21.3926L12.4946 18.113C12.5317 17.8965 12.5156 17.6742 12.4477 17.4653C12.3798 17.2564 12.2621 17.0671 12.1047 16.9139L9.72044 14.5928C9.67487 14.5488 9.64258 14.4929 9.62725 14.4314C9.61191 14.3699 9.61415 14.3054 9.6337 14.2451C9.65326 14.1849 9.68934 14.1313 9.73785 14.0905C9.78636 14.0498 9.84534 14.0235 9.90807 14.0146L13.2043 13.5328C13.4214 13.5012 13.6276 13.4173 13.8051 13.2884C13.9827 13.1594 14.1262 12.9892 14.2234 12.7925L15.697 9.80648Z" stroke="white" stroke-width="1.14872" stroke-linecap="round" stroke-linejoin="round"/>
</svg>
